<?xml version="1.0" standalone="no"?><!DOCTYPE svg PUBLIC "-//W3C//DTD SVG 1.1//EN" "http://www.w3.org/Graphics/SVG/1.1/DTD/svg11.dtd"><svg t="1667821722254" class="icon" viewBox="0 0 1024 1024" version="1.1" xmlns="http://www.w3.org/2000/svg" p-id="1847" xmlns:xlink="http://www.w3.org/1999/xlink" width="200" height="200"><path d="M629.6064 160.4608H392.3456c-16.9472 0-30.72-13.7728-30.72-30.72s13.7728-30.72 30.72-30.72h237.2608c16.9472 0 30.72 13.7728 30.72 30.72s-13.7216 30.72-30.72 30.72z" fill="#2f480e" p-id="1848" data-spm-anchor-id="a313x.7781069.0.i6" class=""></path><path d="M410.8288 694.8352c-16.9472 0-30.72-13.7728-30.72-30.72V438.528c0-16.9472 13.7728-30.72 30.72-30.72s30.72 13.7728 30.72 30.72v225.5872c0 16.9472-13.7728 30.72-30.72 30.72zM604.8256 694.8352c-16.9472 0-30.72-13.7728-30.72-30.72V438.528c0-16.9472 13.7728-30.72 30.72-30.72s30.72 13.7728 30.72 30.72v225.5872c0 16.9472-13.7216 30.72-30.72 30.72z" fill="#279117" p-id="1849" data-spm-anchor-id="a313x.7781069.0.i7" class="selected"></path><path d="M887.6032 216.9344H128.8704c-16.9472 0-30.72 13.7728-30.72 30.72s13.7728 30.72 30.72 30.72h39.4752v491.6736c0 85.0944 69.2224 154.2656 154.2656 154.2656h371.2c85.0944 0 154.2656-69.2224 154.2656-154.2656V278.3744h39.4752c16.9472 0 30.72-13.7728 30.72-30.72s-13.7216-30.72-30.6688-30.72zM786.688 770.048c0 51.2-41.6256 92.8256-92.8256 92.8256h-371.2c-51.2 0-92.8256-41.6256-92.8256-92.8256V278.3744h556.9024v491.6736z" fill="#2f480e" p-id="1850" data-spm-anchor-id="a313x.7781069.0.i5" class=""></path></svg>