<?xml version="1.0" standalone="no"?><!DOCTYPE svg PUBLIC "-//W3C//DTD SVG 1.1//EN" "http://www.w3.org/Graphics/SVG/1.1/DTD/svg11.dtd"><svg t="1667821661827" class="icon" viewBox="0 0 1024 1024" version="1.1" xmlns="http://www.w3.org/2000/svg" p-id="996" data-spm-anchor-id="a313x.7781069.0.i3" xmlns:xlink="http://www.w3.org/1999/xlink" width="200" height="200"><path d="M511.8976 652.544c-77.5168 0-140.544-63.0272-140.544-140.544s63.0272-140.544 140.544-140.544 140.544 63.0272 140.544 140.544-63.0784 140.544-140.544 140.544z m0-219.648c-43.6224 0-79.104 35.4816-79.104 79.104s35.4816 79.104 79.104 79.104 79.104-35.4816 79.104-79.104-35.4816-79.104-79.104-79.104z" fill="#31c20b" p-id="997" data-spm-anchor-id="a313x.7781069.0.i1" class=""></path><path d="M511.8976 948.8384c-22.016 0-44.2368-1.6896-66.0992-5.0688-29.696-4.5568-53.504-26.9824-60.6208-57.088-11.8272-50.176-56.1664-85.248-107.8272-85.248-10.7008 0-21.248 1.536-31.3856 4.5568-28.5696 8.448-60.1088-1.792-78.592-25.4464a435.58912 435.58912 0 0 1-61.44-107.3152c-11.0592-27.904-3.7888-59.8016 18.5344-81.2032 22.016-21.0944 34.1504-49.5104 34.1504-79.9744S146.432 453.12 124.416 432.0256c-22.3744-21.4016-29.6448-53.3504-18.4832-81.3056a434.72896 434.72896 0 0 1 65.9456-112.7936c18.2272-22.5792 48.64-32.3072 77.4144-24.7808 9.1136 2.3552 18.5856 3.584 28.1088 3.584 49.7664 0 93.696-33.4848 106.8544-81.408 7.8848-28.8256 31.5392-50.3296 60.2624-54.8352a436.95104 436.95104 0 0 1 129.6896-0.768c28.9792 4.1984 52.7872 25.7536 60.5696 54.9376 12.9024 48.384 56.9344 82.1248 107.0592 82.1248 10.6496 0 21.1456-1.4848 31.232-4.5056 28.4672-8.3456 59.0848 1.28 78.08 24.6272a437.00736 437.00736 0 0 1 67.2256 114.7904c10.9568 27.7504 3.84 59.5456-18.176 80.9472-21.6576 21.0432-33.5872 49.2544-33.5872 79.4624 0 30.1568 11.9296 58.368 33.5872 79.4112 22.016 21.4016 29.1328 53.0944 18.2272 80.8448a437.77024 437.77024 0 0 1-61.44 107.6736c-19.5072 25.1392-52.4288 35.7888-81.8688 26.5216-10.7008-3.328-21.8624-5.0688-33.1776-5.0688-51.968 0-96.4096 35.328-107.9808 85.9648-6.9632 30.464-30.8736 52.8896-60.8768 57.1392-20.4288 2.816-40.9088 4.2496-61.184 4.2496z m-234.5472-208.8448c80.2816 0 149.1968 54.528 167.6288 132.5568 1.3312 5.632 5.3248 9.728 10.1376 10.496a374.97344 374.97344 0 0 0 109.1584 0.6656c4.608-0.6656 8.3456-4.608 9.6256-10.0352 18.0224-78.6944 87.04-133.6832 167.8848-133.6832 17.5616 0 34.9184 2.6624 51.5584 7.8848 5.12 1.6384 11.1104-0.6656 15.0016-5.632a372.736 372.736 0 0 0 52.7872-92.5184c1.792-4.608 0.3072-10.1888-3.8912-14.2336-33.6384-32.7168-52.224-76.5952-52.224-123.4944 0-46.9504 18.5344-90.7776 52.224-123.4944 4.1472-4.0448 5.6832-9.6256 3.84-14.2848a374.5792 374.5792 0 0 0-57.7536-98.6112c-3.2256-3.9936-8.448-5.7344-13.0048-4.4032-15.7184 4.6592-32.0512 6.9632-48.5888 6.9632-77.8752 0-146.3296-52.5312-166.4-127.744-1.4336-5.376-5.376-9.3184-9.984-9.984-36.9152-5.3248-74.5472-5.12-111.36 0.6656-4.864 0.768-9.0112 4.864-10.5472 10.3936-20.4288 74.5472-88.7296 126.6176-166.0928 126.6176-14.7456 0-29.44-1.8944-43.6224-5.5808-5.4784-1.4336-11.008 0.1024-14.08 3.9424a372.864 372.864 0 0 0-56.6272 96.9216c-1.8432 4.608-0.3072 10.1888 3.8912 14.2336 34.2528 32.8192 53.0944 76.9536 53.0944 124.3648s-18.8416 91.5456-53.0944 124.3648c-4.1984 4.0448-5.7856 9.6256-3.9424 14.1824a374.49728 374.49728 0 0 0 52.7872 92.16c3.0208 3.8912 8.2432 5.632 12.6976 4.352 15.8208-4.7104 32.3072-7.0656 48.896-7.0656z" fill="#2f480e" p-id="998" data-spm-anchor-id="a313x.7781069.0.i0" class="selected"></path></svg>