<?xml version="1.0" standalone="no"?><!DOCTYPE svg PUBLIC "-//W3C//DTD SVG 1.1//EN" "http://www.w3.org/Graphics/SVG/1.1/DTD/svg11.dtd"><svg t="1666871030046" class="icon" viewBox="0 0 1024 1024" version="1.1" xmlns="http://www.w3.org/2000/svg" p-id="1485" width="200" height="200" xmlns:xlink="http://www.w3.org/1999/xlink"><path d="M381.1072 524.5184H859.904V881.408H381.1072z" fill="#22f48e" p-id="1486" data-spm-anchor-id="a313x.7781069.0.i1" class="selected"></path><path d="M153.6 104.4224v574.1056H90.8544v158.2848c0 59.4688 48.384 107.8528 107.8528 107.8528h631.8848c53.248 0 96.5632-43.3152 96.5632-96.5632V104.4224H153.6zM198.7072 898.56c-34.048 0-61.7728-27.6992-61.7728-61.7728v-112.2048h597.0688v123.4688c0 18.4832 5.2224 35.7888 14.2848 50.4832H198.7072z m682.368-50.4832c0 27.8528-22.656 50.4832-50.4832 50.4832s-50.4832-22.656-50.4832-50.4832v-169.5488H199.68V150.5024h681.3952v697.5744z" fill="#3F3F3F" p-id="1487"></path><path d="M278.6048 313.5744h50.9952v46.08h-50.9952zM383.1808 313.5744h410.4704v46.08H383.1808zM278.6048 486.784h50.9952v46.08h-50.9952zM383.1808 486.784h254.8992v46.08h-254.8992z" fill="#3F3F3F" p-id="1488"></path></svg>